HIERARCHY
ROOT root
{
	OFFSET	0	13.1	24.9
	CHANNELS 6  Xposition Yposition Zposition Xrotation Yrotation Zrotation
	JOINT spine_1
	{
		OFFSET	0	9.99999	0
		CHANNELS 3  Xrotation Yrotation Zrotation
		JOINT spine_2
		{
			OFFSET	0	112	-10
			CHANNELS 3  Xrotation Yrotation Zrotation
			JOINT spine_3
			{
				OFFSET	0	206.5	19.3
				CHANNELS 3  Xrotation Yrotation Zrotation
				JOINT spine_4
				{
					OFFSET	0	110.4	14.6
					CHANNELS 3  Xrotation Yrotation Zrotation
					JOINT neck_1
					{
						OFFSET	0	71.8	-50.3
						CHANNELS 3  Xrotation Yrotation Zrotation
						JOINT neck_2
						{
							OFFSET	0	86.2	-25.8
							CHANNELS 3  Xrotation Yrotation Zrotation
							JOINT head_ee
							{
								OFFSET	0	179.8	-8.7
								CHANNELS 3  Xrotation Yrotation Zrotation
								End Site
								{
									OFFSET	1	0	0
								}
							}
						}
					}
					JOINT left_clavicle
					{
						OFFSET	-43.2	22.4	-70.8
						CHANNELS 3  Xrotation Yrotation Zrotation
						JOINT left_shoulder
						{
							OFFSET	-93.9	-5.79999	48.7
							CHANNELS 3  Xrotation Yrotation Zrotation
							JOINT left_elbow
							{
								OFFSET	-291.4	-30.8	15.2
								CHANNELS 3  Xrotation Yrotation Zrotation
								JOINT left_lowarm_twist
								{
									OFFSET	-110.7	-3.89999	13.6
									CHANNELS 3  Xrotation Yrotation Zrotation
									JOINT left_hand
									{
										OFFSET	-110.7	-3.89999	13.6
										CHANNELS 3  Xrotation Yrotation Zrotation
										JOINT left_ee
										{
											OFFSET	-80.8	-5.10001	12.1
											CHANNELS 3  Xrotation Yrotation Zrotation
											End Site
											{
												OFFSET	1	0	0
											}
										}
									}
								}
							}
						}
					}
					JOINT right_clavicle
					{
						OFFSET	43.2	22.4	-70.8
						CHANNELS 3  Xrotation Yrotation Zrotation
						JOINT right_shoulder
						{
							OFFSET	93.9	-5.79999	48.7
							CHANNELS 3  Xrotation Yrotation Zrotation
							JOINT right_elbow
							{
								OFFSET	291.4	-30.8	15.2
								CHANNELS 3  Xrotation Yrotation Zrotation
								JOINT right_lowarm_twist
								{
									OFFSET	110.7	-3.89999	13.6
									CHANNELS 3  Xrotation Yrotation Zrotation
									JOINT right_hand
									{
										OFFSET	110.7	-3.89999	13.6
										CHANNELS 3  Xrotation Yrotation Zrotation
										JOINT right_ee
										{
											OFFSET	80.8	-5.10001	12.1
											CHANNELS 3  Xrotation Yrotation Zrotation
											End Site
											{
												OFFSET	1	0	0
											}
										}
									}
								}
							}
						}
					}
				}
			}
		}
	}
	JOINT left_hip
	{
		OFFSET	-82.8	-127.5	0.300001
		CHANNELS 3  Xrotation Yrotation Zrotation
		JOINT left_knee
		{
			OFFSET	-28.2	-396.7	2.2
			CHANNELS 3  Xrotation Yrotation Zrotation
			JOINT left_ankle
			{
				OFFSET	-11.7	-411.3	35.4
				CHANNELS 3  Xrotation Yrotation Zrotation
				JOINT left_toes
				{
					OFFSET	0	-60	-88.6
					CHANNELS 3  Xrotation Yrotation Zrotation
					JOINT left_foot_ee
					{
						OFFSET	-22.5	-16.5	-42.2
						CHANNELS 3  Xrotation Yrotation Zrotation
						End Site
						{
							OFFSET	1	0	0
						}
					}
				}
			}
		}
	}
	JOINT right_hip
	{
		OFFSET	82.8	-127.5	0.300001
		CHANNELS 3  Xrotation Yrotation Zrotation
		JOINT right_knee
		{
			OFFSET	28.2	-396.7	2.2
			CHANNELS 3  Xrotation Yrotation Zrotation
			JOINT right_ankle
			{
				OFFSET	11.7	-411.3	35.4
				CHANNELS 3  Xrotation Yrotation Zrotation
				JOINT right_toes
				{
					OFFSET	0	-60	-88.6
					CHANNELS 3  Xrotation Yrotation Zrotation
					JOINT right_foot_ee
					{
						OFFSET	22.5	-16.5	-42.2
						CHANNELS 3  Xrotation Yrotation Zrotation
						End Site
						{
							OFFSET	1	0	0
						}
					}
				}
			}
		}
	}
}
MOTION
Frames: 9
Frame Time: 0.02
1041.4 574.639 -1682.42 -0.800883142033 28.3845696568 9.43855640178 2.23006 -0.184735 -0.607455 2.23025 -0.145707 -0.617978 2.23182 -0.0372841 -0.633827 2.23129 -0.136915 -0.619985 -10.8743 -12.142 -7.27211 -10.8681 -18.1549 -10.2241 -0.0 0.0 -0.0 7.719 13.0571 14.4726 -36.997 -8.10898 59.2027 0.327788 -9.2232 0.0264401 -1.35015 -0.0495237 0.1653 3.85335 17.8538 32.592 -0.0 0.0 -0.0 8.68311 1.34525 -16.9959 -13.2124 11.3962 -50.8854 3.67683 61.2159 -2.17565 14.4226 -0.280904 1.8161 -1.36526 5.99769 11.8359 0.0 0.0 0.0 27.3056 -3.9937 -16.4963 -1.48503 0.0582912 0.220438 -10.2168 28.3921 1.61838 -37.7768 0.0 0.0 -0.0 0.0 -0.0 1.18231 33.7938 -16.0575 -24.3577 -0.218516 -3.70344 17.1743 -7.86075 2.37457 23.7234 -0.0 -0.0 0.0 0.0 0.0 
1041.4 574.639 -1682.42 -0.805078496911 28.9322557157 9.44730415666 2.23006 -0.184735 -0.607455 2.23025 -0.145707 -0.617978 2.23182 -0.0372841 -0.633827 2.23129 -0.136915 -0.619985 -10.8743 -12.142 -7.27211 -10.8681 -18.1549 -10.2241 -0.0 0.0 -0.0 7.719 13.0571 14.4726 -36.997 -8.10898 59.2027 0.327788 -9.2232 0.0264401 -1.35015 -0.0495237 0.1653 3.85335 17.8538 32.592 -0.0 0.0 -0.0 8.68311 1.34525 -16.9959 -13.2124 11.3962 -50.8854 3.67683 61.2159 -2.17565 14.4226 -0.280904 1.8161 -1.36526 5.99769 11.8359 0.0 0.0 0.0 27.3056 -3.9937 -16.4963 -1.48503 0.0582912 0.220438 -10.2168 28.3921 1.61838 -37.7768 0.0 0.0 -0.0 0.0 -0.0 1.18231 33.7938 -16.0575 -24.3577 -0.218516 -3.70344 17.1743 -7.86075 2.37457 23.7234 -0.0 -0.0 0.0 0.0 0.0 
1041.4 574.639 -1682.42 -0.810995267562 29.6796302205 9.45939194485 2.23006 -0.184735 -0.607455 2.23025 -0.145707 -0.617978 2.23182 -0.0372841 -0.633827 2.23129 -0.136915 -0.619985 -10.8743 -12.142 -7.27211 -10.8681 -18.1549 -10.2241 -0.0 0.0 -0.0 7.719 13.0571 14.4726 -36.997 -8.10898 59.2027 0.327788 -9.2232 0.0264401 -1.35015 -0.0495237 0.1653 3.85335 17.8538 32.592 -0.0 0.0 -0.0 8.68311 1.34525 -16.9959 -13.2124 11.3962 -50.8854 3.67683 61.2159 -2.17565 14.4226 -0.280904 1.8161 -1.36526 5.99769 11.8359 0.0 0.0 0.0 27.3056 -3.9937 -16.4963 -1.48503 0.0582912 0.220438 -10.2168 28.3921 1.61838 -37.7768 0.0 0.0 -0.0 0.0 -0.0 1.18231 33.7938 -16.0575 -24.3577 -0.218516 -3.70344 17.1743 -7.86075 2.37457 23.7234 -0.0 -0.0 0.0 0.0 0.0 
1041.4 574.639 -1682.42 -0.813388462398 29.9740783922 9.46420352539 2.23006 -0.184735 -0.607455 2.23025 -0.145707 -0.617978 2.23182 -0.0372841 -0.633827 2.23129 -0.136915 -0.619985 -10.8743 -12.142 -7.27211 -10.8681 -18.1549 -10.2241 -0.0 0.0 -0.0 7.719 13.0571 14.4726 -36.997 -8.10898 59.2027 0.327788 -9.2232 0.0264401 -1.35015 -0.0495237 0.1653 3.85335 17.8538 32.592 -0.0 0.0 -0.0 8.68311 1.34525 -16.9959 -13.2124 11.3962 -50.8854 3.67683 61.2159 -2.17565 14.4226 -0.280904 1.8161 -1.36526 5.99769 11.8359 0.0 0.0 0.0 27.3056 -3.9937 -16.4963 -1.48503 0.0582912 0.220438 -10.2168 28.3921 1.61838 -37.7768 0.0 0.0 -0.0 0.0 -0.0 1.18231 33.7938 -16.0575 -24.3577 -0.218516 -3.70344 17.1743 -7.86075 2.37457 23.7234 -0.0 -0.0 0.0 0.0 0.0 
1041.4 574.639 -1682.42 -0.818745988325 30.6178358135 9.47482353535 2.23006 -0.184735 -0.607455 2.23025 -0.145707 -0.617978 2.23182 -0.0372841 -0.633827 2.23129 -0.136915 -0.619985 -10.8743 -12.142 -7.27211 -10.8681 -18.1549 -10.2241 -0.0 0.0 -0.0 7.719 13.0571 14.4726 -36.997 -8.10898 59.2027 0.327788 -9.2232 0.0264401 -1.35015 -0.0495237 0.1653 3.85335 17.8538 32.592 -0.0 0.0 -0.0 8.68311 1.34525 -16.9959 -13.2124 11.3962 -50.8854 3.67683 61.2159 -2.17565 14.4226 -0.280904 1.8161 -1.36526 5.99769 11.8359 0.0 0.0 0.0 27.3056 -3.9937 -16.4963 -1.48503 0.0582912 0.220438 -10.2168 28.3921 1.61838 -37.7768 0.0 0.0 -0.0 0.0 -0.0 1.18231 33.7938 -16.0575 -24.3577 -0.218516 -3.70344 17.1743 -7.86075 2.37457 23.7234 -0.0 -0.0 0.0 0.0 0.0 
1041.4 574.639 -1682.42 -0.823427854513 31.1638722438 9.48394269009 2.23006 -0.184735 -0.607455 2.23025 -0.145707 -0.617978 2.23182 -0.0372841 -0.633827 2.23129 -0.136915 -0.619985 -10.8743 -12.142 -7.27211 -10.8681 -18.1549 -10.2241 -0.0 0.0 -0.0 7.719 13.0571 14.4726 -36.997 -8.10898 59.2027 0.327788 -9.2232 0.0264401 -1.35015 -0.0495237 0.1653 3.85335 17.8538 32.592 -0.0 0.0 -0.0 8.68311 1.34525 -16.9959 -13.2124 11.3962 -50.8854 3.67683 61.2159 -2.17565 14.4226 -0.280904 1.8161 -1.36526 5.99769 11.8359 0.0 0.0 0.0 27.3056 -3.9937 -16.4963 -1.48503 0.0582912 0.220438 -10.2168 28.3921 1.61838 -37.7768 0.0 0.0 -0.0 0.0 -0.0 1.18231 33.7938 -16.0575 -24.3577 -0.218516 -3.70344 17.1743 -7.86075 2.37457 23.7234 -0.0 -0.0 0.0 0.0 0.0 
1013.79840077 577.399 -1699.1269005 -0.901400999996 30.6298833335 9.9571850796 2.32043 -0.169538 -0.869965 2.32084 -0.113839 -0.878989 2.32255 0.0375898 -0.885532 2.32147 -0.10273 -0.880357 -9.67477 -13.7863 -6.75683 -9.69022 -21.3715 -9.96647 -0.0 0.0 -0.0 8.14999 13.0939 15.2183 -36.8692 -8.29676 58.5844 0.40812 -11.4297 0.0408427 -1.12291 -0.040916 0.13756 3.80145 16.7938 31.9481 -0.0 0.0 -0.0 8.31653 1.78324 -16.254 -16.368 10.5122 -50.8801 3.40172 59.2997 -1.93675 14.333 -0.28058 1.80466 -1.22501 6.91654 11.2743 0.0 0.0 0.0 27.3061 -4.2931 -16.0178 -3.4874 0.127796 0.519867 -12.1895 29.1439 1.94453 -37.8361 0.0 0.0 -0.0 0.0 -0.0 -1.09622 34.5584 -15.2634 -23.3372 -0.241105 -3.54846 16.2235 -7.60585 2.25203 23.1385 -0.0 -0.0 0.0 0.0 0.0 
1013.51350502 577.399 -1698.64689747 -0.910867156224 31.6210156856 9.9754972344 2.32043 -0.169538 -0.869965 2.32084 -0.113839 -0.878989 2.32255 0.0375898 -0.885532 2.32147 -0.10273 -0.880357 -9.67477 -13.7863 -6.75683 -9.69022 -21.3715 -9.96647 -0.0 0.0 -0.0 8.14999 13.0939 15.2183 -36.8692 -8.29676 58.5844 0.40812 -11.4297 0.0408427 -1.12291 -0.040916 0.13756 3.80145 16.7938 31.9481 -0.0 0.0 -0.0 8.31653 1.78324 -16.254 -16.368 10.5122 -50.8801 3.40172 59.2997 -1.93675 14.333 -0.28058 1.80466 -1.22501 6.91654 11.2743 0.0 0.0 0.0 27.3061 -4.2931 -16.0178 -3.4874 0.127796 0.519867 -12.1895 29.1439 1.94453 -37.8361 0.0 0.0 -0.0 0.0 -0.0 -1.09622 34.5584 -15.2634 -23.3372 -0.241105 -3.54846 16.2235 -7.60585 2.25203 23.1385 -0.0 -0.0 0.0 0.0 0.0 
952.792035622 591.771 -1730.32790462 0.968639704619 30.347486757 8.44012072823 2.34088 -0.0343308 -1.37122 2.34192 0.052985 -1.37063 2.34048 0.285381 -1.34164 2.33797 0.0699324 -1.36987 -10.463 -16.6312 -8.32354 -10.535 -25.898 -12.3685 -0.0 0.0 -0.0 8.78847 13.5474 16.2903 -36.0702 -8.55111 57.5541 0.56203 -15.5581 0.0767794 -1.34439 -0.0493046 0.164599 2.80388 13.9258 24.0157 -0.0 0.0 -0.0 7.93036 2.1258 -15.4693 -22.2148 9.23343 -50.6423 2.72804 53.4898 -1.37493 14.0941 -0.279627 1.77415 -1.06886 6.8204 10.1599 0.0 0.0 0.0 24.1895 -4.37391 -13.848 -12.5532 0.310031 1.89768 -4.58304 28.31 0.719582 -35.7412 0.0 0.0 -0.0 0.0 -0.0 -5.9142 35.4536 -12.7357 -23.9748 -0.227315 -3.64534 13.3031 -10.3987 1.87044 20.0336 -0.0 -0.0 0.0 0.0 0.0 
